<?xml version="1.0" encoding="UTF-8" standalone="no"?>
<!-- Generator: Adobe Illustrator 19.0.0, SVG Export Plug-In . SVG Version: 6.00 Build 0)  -->

<svg
   xmlns:dc="http://purl.org/dc/elements/1.1/"
   xmlns:cc="http://creativecommons.org/ns#"
   xmlns:rdf="http://www.w3.org/1999/02/22-rdf-syntax-ns#"
   xmlns:svg="http://www.w3.org/2000/svg"
   xmlns="http://www.w3.org/2000/svg"
   xmlns:sodipodi="http://sodipodi.sourceforge.net/DTD/sodipodi-0.dtd"
   xmlns:inkscape="http://www.inkscape.org/namespaces/inkscape"
   version="1.1"
   id="Capa_1"
   x="0px"
   y="0px"
   viewBox="0 0 512.001 512.001"
   style="enable-background:new 0 0 512.001 512.001;"
   xml:space="preserve"
   sodipodi:docname="home.svg"
   inkscape:version="0.92.5 (2060ec1f9f, 2020-04-08)"><metadata
   id="metadata43"><rdf:RDF><cc:Work
       rdf:about=""><dc:format>image/svg+xml</dc:format><dc:type
         rdf:resource="http://purl.org/dc/dcmitype/StillImage" /></cc:Work></rdf:RDF></metadata><defs
   id="defs41" /><sodipodi:namedview
   pagecolor="#ffffff"
   bordercolor="#666666"
   borderopacity="1"
   objecttolerance="10"
   gridtolerance="10"
   guidetolerance="10"
   inkscape:pageopacity="0"
   inkscape:pageshadow="2"
   inkscape:window-width="881"
   inkscape:window-height="480"
   id="namedview39"
   showgrid="false"
   inkscape:zoom="0.46093662"
   inkscape:cx="256.00049"
   inkscape:cy="256.00049"
   inkscape:window-x="0"
   inkscape:window-y="0"
   inkscape:window-maximized="0"
   inkscape:current-layer="Capa_1" />
<g
   id="g6"
   style="fill:#ffffff">
	<g
   id="g4"
   style="fill:#ffffff">
		<path
   d="M508.125,234.926l-105.724-92.01c-3.034-2.64-7.634-2.321-10.276,0.713c-2.641,3.034-2.322,7.635,0.713,10.276    l99.021,86.177h-44.894L263.328,80.264c-4.177-3.635-10.476-3.636-14.654,0L65.037,240.081H20.143l68.365-59.498    c0.001-0.001,0.002-0.002,0.003-0.003l64.487-56.122c0.002-0.001,0.003-0.003,0.004-0.004l102.999-89.638l110.573,96.231    c3.035,2.641,7.635,2.322,10.276-0.713c2.641-3.034,2.322-7.635-0.713-10.276l-112.81-98.177c-4.177-3.635-10.476-3.636-14.654,0    l-79.795,69.445V70.713c0-6.284-5.113-11.397-11.397-11.397H71.89c-6.284,0-11.397,5.113-11.397,11.397v21.44    c0,6.284,5.113,11.397,11.397,11.397h4.556v68.22l-72.57,63.157c-3.573,3.109-4.808,7.984-3.149,12.42    c1.66,4.436,5.793,7.302,10.529,7.302h49.203v129.412c0,4.023,3.261,7.284,7.284,7.284s7.284-3.261,7.284-7.284V250.699    l180.974-157.5L436.975,250.7v223.761c0,2.106-1.714,3.82-3.82,3.82H324.646V294.372c0-9.679-7.874-17.553-17.553-17.553h-93.124    c-9.679,0-17.553,7.874-17.553,17.553v183.907H78.847c-2.106,0-3.82-1.714-3.82-3.82v-55.315c0-4.023-3.261-7.284-7.284-7.284    s-7.284,3.261-7.284,7.284v55.315c0,10.139,8.248,18.387,18.387,18.387h354.308c10.139,0,18.387-8.248,18.387-18.387V254.648    h49.203c4.736,0,8.869-2.866,10.529-7.302C512.934,242.911,511.698,238.036,508.125,234.926z M140.933,115.647l-49.92,43.445    V103.55h49.92V115.647z M75.06,88.983v-15.1h79.252v15.1h-6.095H83.73H75.06z M310.079,478.28h-99.096V294.372    c0-1.646,1.34-2.985,2.986-2.985h93.124c1.646,0,2.986,1.339,2.986,2.985V478.28z"
   id="path2"
   style="fill:#ffffff" />
	</g>
</g>
<g
   id="g8"
   style="fill:#ffffff">
</g>
<g
   id="g10"
   style="fill:#ffffff">
</g>
<g
   id="g12"
   style="fill:#ffffff">
</g>
<g
   id="g14"
   style="fill:#ffffff">
</g>
<g
   id="g16"
   style="fill:#ffffff">
</g>
<g
   id="g18"
   style="fill:#ffffff">
</g>
<g
   id="g20"
   style="fill:#ffffff">
</g>
<g
   id="g22"
   style="fill:#ffffff">
</g>
<g
   id="g24"
   style="fill:#ffffff">
</g>
<g
   id="g26"
   style="fill:#ffffff">
</g>
<g
   id="g28"
   style="fill:#ffffff">
</g>
<g
   id="g30"
   style="fill:#ffffff">
</g>
<g
   id="g32"
   style="fill:#ffffff">
</g>
<g
   id="g34"
   style="fill:#ffffff">
</g>
<g
   id="g36"
   style="fill:#ffffff">
</g>
</svg>