<?xml version="1.0" encoding="UTF-8" standalone="no"?>
<!-- Generator: Adobe Illustrator 19.0.0, SVG Export Plug-In . SVG Version: 6.00 Build 0)  -->

<svg
   version="1.1"
   id="Layer_1"
   x="0px"
   y="0px"
   viewBox="0 0 128 128.0002"
   xml:space="preserve"
   sodipodi:docname="paint.svg"
   inkscape:version="1.1.2 (0a00cf5339, 2022-02-04, custom)"
   width="128"
   height="128.0002"
   xmlns:inkscape="http://www.inkscape.org/namespaces/inkscape"
   xmlns:sodipodi="http://sodipodi.sourceforge.net/DTD/sodipodi-0.dtd"
   xmlns="http://www.w3.org/2000/svg"
   xmlns:svg="http://www.w3.org/2000/svg"><defs
   id="defs43" /><sodipodi:namedview
   id="namedview41"
   pagecolor="#ffffff"
   bordercolor="#666666"
   borderopacity="1.0"
   inkscape:pageshadow="2"
   inkscape:pageopacity="0.0"
   inkscape:pagecheckerboard="0"
   showgrid="false"
   inkscape:zoom="2.0897436"
   inkscape:cx="141.16564"
   inkscape:cy="57.90184"
   inkscape:window-width="1920"
   inkscape:window-height="989"
   inkscape:window-x="0"
   inkscape:window-y="0"
   inkscape:window-maximized="1"
   inkscape:current-layer="g8"
   fit-margin-top="0"
   fit-margin-left="0"
   fit-margin-right="0"
   fit-margin-bottom="0" />
<g
   id="g8"
   transform="translate(0,1.5848128e-5)">
	<path
   d="M 63.973844,-1.0646683e-5 C 28.639881,0.0141022 0,28.662516 0,64.00009 c 0,35.346107 28.653994,64.0001 64.0001,64.0001 0.02265,0 0.04562,0 0.06827,0 3.176374,-0.003 5.512542,-3.0103 4.749792,-6.09347 -0.72238,-2.92168 -1.103755,-5.97793 -1.098176,-9.12411 0.01247,-7.2179 2.09067,-13.977953 5.66844,-19.720239 L 63.505495,83.179443 C 58.8476,83.01534 54.490998,81.127173 51.177106,77.813281 49.282375,75.91855 46.555642,72.082154 44.762655,60.693746 43.860746,54.965901 43.620499,49.954529 43.610653,49.744149 l -0.267488,-5.757055 5.757056,0.267488 c 0.210708,0.0095 5.221751,0.250093 10.949596,1.152002 11.388408,1.792987 15.224804,4.51972 17.119535,6.414451 3.325051,3.325051 5.20567,7.710535 5.365834,12.32806 l 12.51842,12.51842 c 3.204928,-0.91832 6.581184,-1.420802 10.066064,-1.440823 5.39538,-0.03151 10.52884,1.072904 15.17623,3.088087 2.94663,1.277704 6.30188,-0.558606 6.83029,-3.726447 0.58092,-3.483575 0.8809,-7.061673 0.87368,-10.711648 C 127.93292,28.692383 99.157161,-0.01412349 63.973844,-1.0646683e-5 Z M 25.615138,87.312208 c -0.902566,0.364309 -1.83467,0.534976 -2.750364,0.534976 -2.927594,0 -5.69765,-1.752619 -6.856216,-4.633936 -1.519592,-3.784211 0.315078,-8.084033 4.102571,-9.606907 3.784211,-1.519592 8.083705,0.318359 9.603297,4.10257 1.519592,3.78454 -0.315077,8.083705 -4.099288,9.603297 z m 5.162674,-39.414215 c -1.280002,2.625645 -3.908929,4.151801 -6.642882,4.151801 -1.08636,0 -2.189131,-0.23959 -3.229543,-0.748309 -3.666057,-1.78511 -5.192214,-6.206368 -3.403493,-9.872426 0,0 0,0 -0.0033,0 1.788721,-3.666057 6.206369,-5.188931 9.875708,-3.403492 3.666057,1.785767 5.188931,6.206697 3.403492,9.872426 z m 17.719823,50.22892 c 1.94626,0 3.84657,0.787693 5.221752,2.162877 1.375182,1.37223 2.162875,3.27549 2.162875,5.22175 0,1.94298 -0.787693,3.84657 -2.162875,5.22175 -1.375182,1.3719 -3.275492,2.15959 -5.221752,2.15959 -1.942977,0 -3.84657,-0.78769 -5.221752,-2.15959 -1.375181,-1.37518 -2.162875,-3.27877 -2.162875,-5.22175 0,-1.94626 0.787694,-3.84952 2.162875,-5.22175 1.375182,-1.375184 3.278775,-2.162877 5.221752,-2.162877 z m 5.064213,-69.550386 c -0.699078,0.206769 -1.401438,0.305559 -2.097234,0.305559 -3.186877,0 -6.127599,-2.081152 -7.076114,-5.293957 -1.155283,-3.91254 1.076515,-8.018392 4.988726,-9.173348 3.912211,-1.155612 8.018064,1.079797 9.173348,4.988726 1.155284,3.912211 -1.076515,8.018064 -4.988726,9.17302 z m 39.709601,1.43754 c -1.394874,2.274794 -3.820314,3.528211 -6.30483,3.528211 -1.316105,0 -2.64862,-0.354134 -3.849853,-1.089315 -3.478979,-2.133336 -4.568622,-6.679313 -2.438568,-10.154682 2.130055,-3.47898 6.675703,-4.568623 10.154683,-2.438568 3.47898,2.130054 4.568623,6.675703 2.438568,10.154354 z M 112.7242,60.793521 c -1.37518,1.375181 -3.27878,2.162875 -5.22175,2.162875 -1.94298,0 -3.84657,-0.787365 -5.22176,-2.162875 -1.37518,-1.3719 -2.16287,-3.275164 -2.16287,-5.221752 0,-1.942978 0.78769,-3.84657 2.16287,-5.221752 1.37519,-1.3719 3.27878,-2.162875 5.22176,-2.162875 1.94297,0 3.84657,0.790975 5.22175,2.162875 1.37518,1.375182 2.16287,3.278774 2.16287,5.221752 0,1.946259 -0.78769,3.84657 -2.16287,5.221752 z"
   id="path2"
   style="fill:#ffffff;fill-opacity:1;stroke-width:0.328206" />
	<path
   d="m 81.602097,70.641331 c -0.899283,2.685379 -2.413624,5.153157 -4.432417,7.171621 -2.017808,2.018465 -4.485915,3.532478 -7.171621,4.43209 l 35.664461,35.664138 c 3.17244,3.17244 8.31542,3.17244 11.48786,0 l 0.11618,-0.11619 c 3.17244,-3.17243 3.17244,-8.31541 0,-11.48752 z"
   id="path4"
   style="fill:#ffaf46;fill-opacity:1;stroke-width:0.328206" />
	<path
   d="m 73.45669,55.533697 c -5.12887,-5.12887 -24.599998,-6.034061 -24.599998,-6.034061 0,0 0.905191,19.471128 6.034061,24.599998 2.931204,2.931204 6.902164,4.186591 10.726417,3.76419 2.863922,-0.315733 5.644152,-1.568823 7.83952,-3.76419 2.195367,-2.195368 3.448785,-4.975598 3.76419,-7.83952 0.422401,-3.824252 -0.832986,-7.795212 -3.76419,-10.726417 z"
   id="path6"
   style="fill:#ffaf46;fill-opacity:1;stroke-width:0.328206" />
</g>
<g
   id="g10"
   transform="translate(0,1.5848128e-5)">
</g>
<g
   id="g12"
   transform="translate(0,1.5848128e-5)">
</g>
<g
   id="g14"
   transform="translate(0,1.5848128e-5)">
</g>
<g
   id="g16"
   transform="translate(0,1.5848128e-5)">
</g>
<g
   id="g18"
   transform="translate(0,1.5848128e-5)">
</g>
<g
   id="g20"
   transform="translate(0,1.5848128e-5)">
</g>
<g
   id="g22"
   transform="translate(0,1.5848128e-5)">
</g>
<g
   id="g24"
   transform="translate(0,1.5848128e-5)">
</g>
<g
   id="g26"
   transform="translate(0,1.5848128e-5)">
</g>
<g
   id="g28"
   transform="translate(0,1.5848128e-5)">
</g>
<g
   id="g30"
   transform="translate(0,1.5848128e-5)">
</g>
<g
   id="g32"
   transform="translate(0,1.5848128e-5)">
</g>
<g
   id="g34"
   transform="translate(0,1.5848128e-5)">
</g>
<g
   id="g36"
   transform="translate(0,1.5848128e-5)">
</g>
<g
   id="g38"
   transform="translate(0,1.5848128e-5)">
</g>
</svg>
