<?xml version="1.0" encoding="UTF-8" standalone="no"?>
<svg
   xmlns:dc="http://purl.org/dc/elements/1.1/"
   xmlns:cc="http://creativecommons.org/ns#"
   xmlns:rdf="http://www.w3.org/1999/02/22-rdf-syntax-ns#"
   xmlns:svg="http://www.w3.org/2000/svg"
   xmlns="http://www.w3.org/2000/svg"
   xmlns:sodipodi="http://sodipodi.sourceforge.net/DTD/sodipodi-0.dtd"
   xmlns:inkscape="http://www.inkscape.org/namespaces/inkscape"
   id="Capa_1"
   enable-background="new 0 0 512 512"
   height="512"
   viewBox="0 0 512 512"
   width="512"
   version="1.1"
   sodipodi:docname="power.svg"
   inkscape:version="0.92.5 (2060ec1f9f, 2020-04-08)">
  <metadata
     id="metadata15">
    <rdf:RDF>
      <cc:Work
         rdf:about="">
        <dc:format>image/svg+xml</dc:format>
        <dc:type
           rdf:resource="http://purl.org/dc/dcmitype/StillImage" />
      </cc:Work>
    </rdf:RDF>
  </metadata>
  <defs
     id="defs13" />
  <sodipodi:namedview
     pagecolor="#ffffff"
     bordercolor="#666666"
     borderopacity="1"
     objecttolerance="10"
     gridtolerance="10"
     guidetolerance="10"
     inkscape:pageopacity="0"
     inkscape:pageshadow="2"
     inkscape:window-width="881"
     inkscape:window-height="480"
     id="namedview11"
     showgrid="false"
     inkscape:zoom="0.4609375"
     inkscape:cx="256"
     inkscape:cy="256"
     inkscape:window-x="0"
     inkscape:window-y="0"
     inkscape:window-maximized="0"
     inkscape:current-layer="Capa_1" />
  <g
     id="g8"
     style="fill:#ffffff">
    <path
       d="m437.02 74.98c-48.353-48.351-112.64-74.98-181.02-74.98s-132.667 26.629-181.02 74.98c-48.351 48.353-74.98 112.64-74.98 181.02s26.629 132.667 74.98 181.02c48.353 48.351 112.64 74.98 181.02 74.98s132.667-26.629 181.02-74.98c48.351-48.353 74.98-112.64 74.98-181.02s-26.629-132.667-74.98-181.02zm-181.02 407.02c-124.617 0-226-101.383-226-226s101.383-226 226-226 226 101.383 226 226-101.383 226-226 226z"
       id="path2"
       style="fill:#ffffff" />
    <path
       d="m322.009 104.821c-7.591-3.321-16.435.144-19.753 7.734-3.319 7.59.144 16.434 7.734 19.753 49.212 21.518 81.01 70.069 81.01 123.692 0 74.439-60.561 135-135 135s-135-60.561-135-135c0-53.623 31.798-102.174 81.009-123.691 7.59-3.319 11.053-12.163 7.734-19.753-3.319-7.591-12.163-11.055-19.753-7.734-60.134 26.292-98.99 85.634-98.99 151.178 0 90.981 74.019 165 165 165s165-74.019 165-165c0-65.544-38.856-124.886-98.991-151.179z"
       id="path4"
       style="fill:#ffffff" />
    <path
       d="m256 221c8.284 0 15-6.716 15-15v-120c0-8.284-6.716-15-15-15s-15 6.716-15 15v120c0 8.284 6.716 15 15 15z"
       id="path6"
       style="fill:#ffffff" />
  </g>
</svg>
