<?xml version="1.0" encoding="UTF-8" standalone="no"?>
<!-- Generator: Adobe Illustrator 19.0.0, SVG Export Plug-In . SVG Version: 6.00 Build 0)  -->

<svg
   xmlns:dc="http://purl.org/dc/elements/1.1/"
   xmlns:cc="http://creativecommons.org/ns#"
   xmlns:rdf="http://www.w3.org/1999/02/22-rdf-syntax-ns#"
   xmlns:svg="http://www.w3.org/2000/svg"
   xmlns="http://www.w3.org/2000/svg"
   xmlns:sodipodi="http://sodipodi.sourceforge.net/DTD/sodipodi-0.dtd"
   xmlns:inkscape="http://www.inkscape.org/namespaces/inkscape"
   version="1.1"
   id="Capa_1"
   x="0px"
   y="0px"
   viewBox="0 0 491.236 491.236"
   style="enable-background:new 0 0 491.236 491.236;"
   xml:space="preserve"
   sodipodi:docname="refresh.svg"
   inkscape:version="0.92.5 (2060ec1f9f, 2020-04-08)"><metadata
   id="metadata43"><rdf:RDF><cc:Work
       rdf:about=""><dc:format>image/svg+xml</dc:format><dc:type
         rdf:resource="http://purl.org/dc/dcmitype/StillImage" /></cc:Work></rdf:RDF></metadata><defs
   id="defs41" /><sodipodi:namedview
   pagecolor="#ffffff"
   bordercolor="#666666"
   borderopacity="1"
   objecttolerance="10"
   gridtolerance="10"
   guidetolerance="10"
   inkscape:pageopacity="0"
   inkscape:pageshadow="2"
   inkscape:window-width="881"
   inkscape:window-height="480"
   id="namedview39"
   showgrid="false"
   inkscape:zoom="0.48042082"
   inkscape:cx="245.618"
   inkscape:cy="245.618"
   inkscape:window-x="0"
   inkscape:window-y="0"
   inkscape:window-maximized="0"
   inkscape:current-layer="Capa_1" />
<g
   id="g6"
   style="fill:#ffffff">
	<g
   id="g4"
   style="fill:#ffffff">
		<path
   d="M55.89,262.818c-3-26-0.5-51.1,6.3-74.3c22.6-77.1,93.5-133.8,177.6-134.8v-50.4c0-2.8,3.5-4.3,5.8-2.6l103.7,76.2    c1.7,1.3,1.7,3.9,0,5.1l-103.6,76.2c-2.4,1.7-5.8,0.2-5.8-2.6v-50.3c-55.3,0.9-102.5,35-122.8,83.2c-7.7,18.2-11.6,38.3-10.5,59.4    c1.5,29,12.4,55.7,29.6,77.3c9.2,11.5,7,28.3-4.9,37c-11.3,8.3-27.1,6-35.8-5C74.19,330.618,59.99,298.218,55.89,262.818z     M355.29,166.018c17.3,21.5,28.2,48.3,29.6,77.3c1.1,21.2-2.9,41.3-10.5,59.4c-20.3,48.2-67.5,82.4-122.8,83.2v-50.3    c0-2.8-3.5-4.3-5.8-2.6l-103.7,76.2c-1.7,1.3-1.7,3.9,0,5.1l103.6,76.2c2.4,1.7,5.8,0.2,5.8-2.6v-50.4    c84.1-0.9,155.1-57.6,177.6-134.8c6.8-23.2,9.2-48.3,6.3-74.3c-4-35.4-18.2-67.8-39.5-94.4c-8.8-11-24.5-13.3-35.8-5    C348.29,137.718,346.09,154.518,355.29,166.018z"
   id="path2"
   style="fill:#ffffff" />
	</g>
</g>
<g
   id="g8"
   style="fill:#ffffff">
</g>
<g
   id="g10"
   style="fill:#ffffff">
</g>
<g
   id="g12"
   style="fill:#ffffff">
</g>
<g
   id="g14"
   style="fill:#ffffff">
</g>
<g
   id="g16"
   style="fill:#ffffff">
</g>
<g
   id="g18"
   style="fill:#ffffff">
</g>
<g
   id="g20"
   style="fill:#ffffff">
</g>
<g
   id="g22"
   style="fill:#ffffff">
</g>
<g
   id="g24"
   style="fill:#ffffff">
</g>
<g
   id="g26"
   style="fill:#ffffff">
</g>
<g
   id="g28"
   style="fill:#ffffff">
</g>
<g
   id="g30"
   style="fill:#ffffff">
</g>
<g
   id="g32"
   style="fill:#ffffff">
</g>
<g
   id="g34"
   style="fill:#ffffff">
</g>
<g
   id="g36"
   style="fill:#ffffff">
</g>
</svg>