<?xml version="1.0" encoding="UTF-8" standalone="no"?>
<!-- Generator: Adobe Illustrator 22.1.0, SVG Export Plug-In . SVG Version: 6.00 Build 0)  -->

<svg
   xmlns:dc="http://purl.org/dc/elements/1.1/"
   xmlns:cc="http://creativecommons.org/ns#"
   xmlns:rdf="http://www.w3.org/1999/02/22-rdf-syntax-ns#"
   xmlns:svg="http://www.w3.org/2000/svg"
   xmlns="http://www.w3.org/2000/svg"
   xmlns:sodipodi="http://sodipodi.sourceforge.net/DTD/sodipodi-0.dtd"
   xmlns:inkscape="http://www.inkscape.org/namespaces/inkscape"
   version="1.1"
   id="Layer_1_1_"
   x="0px"
   y="0px"
   viewBox="0 0 64 64"
   style="enable-background:new 0 0 64 64;"
   xml:space="preserve"
   width="512"
   height="512"
   sodipodi:docname="website.svg"
   inkscape:version="0.92.5 (2060ec1f9f, 2020-04-08)"><metadata
   id="metadata71"><rdf:RDF><cc:Work
       rdf:about=""><dc:format>image/svg+xml</dc:format><dc:type
         rdf:resource="http://purl.org/dc/dcmitype/StillImage" /></cc:Work></rdf:RDF></metadata><defs
   id="defs69" /><sodipodi:namedview
   pagecolor="#ffffff"
   bordercolor="#666666"
   borderopacity="1"
   objecttolerance="10"
   gridtolerance="10"
   guidetolerance="10"
   inkscape:pageopacity="0"
   inkscape:pageshadow="2"
   inkscape:window-width="881"
   inkscape:window-height="480"
   id="namedview67"
   showgrid="false"
   inkscape:zoom="0.4609375"
   inkscape:cx="26.033898"
   inkscape:cy="256"
   inkscape:window-x="0"
   inkscape:window-y="0"
   inkscape:window-maximized="0"
   inkscape:current-layer="Layer_1_1_" />
<g
   id="g64"
   style="fill:#ffffff">
	<g
   id="g4"
   style="fill:#ffffff">
		<rect
   x="37"
   y="14"
   style="fill:#ffffff"
   width="22"
   height="12"
   id="rect2" />
	</g>
	<g
   id="g14"
   style="fill:#ffffff">
		<path
   d="M1,1v52h7v-2H3V11h58v36h2V1H1z M3,9V3h58v6H3z"
   id="path6"
   style="fill:#ffffff" />
		<rect
   x="5"
   y="5"
   width="2"
   height="2"
   id="rect8"
   style="fill:#ffffff" />
		<rect
   x="9"
   y="5"
   width="2"
   height="2"
   id="rect10"
   style="fill:#ffffff" />
		<rect
   x="13"
   y="5"
   width="2"
   height="2"
   id="rect12"
   style="fill:#ffffff" />
	</g>
	<g
   id="g20"
   style="fill:#ffffff">
		<g
   id="g18"
   style="fill:#ffffff">
			<path
   style="fill:#ffffff"
   d="M20.721,63h-5.441l-0.818-2.456l-2.315,1.158l-3.848-3.848l1.158-2.315L7,54.721v-5.441     l2.456-0.818l-1.158-2.315l3.848-3.848l2.315,1.158L15.279,41h5.441l0.818,2.456l2.315-1.158l3.848,3.848l-1.158,2.315L29,49.279     v5.441l-2.456,0.818l1.158,2.315l-3.848,3.848l-2.315-1.158L20.721,63z"
   id="path16" />
		</g>
	</g>
	<g
   id="g24"
   style="fill:#ffffff">
		<path
   d="M18,57c-2.757,0-5-2.243-5-5s2.243-5,5-5s5,2.243,5,5S20.757,57,18,57z M18,49c-1.654,0-3,1.346-3,3s1.346,3,3,3    s3-1.346,3-3S19.654,49,18,49z"
   id="path22"
   style="fill:#ffffff" />
	</g>
	<g
   id="g30"
   style="fill:#ffffff">
		<g
   id="g28"
   style="fill:#ffffff">
			<path
   style="fill:#ffffff"
   d="M49.721,63h-5.441l-0.82-2.459c-1.234-0.322-2.416-0.813-3.525-1.466l-2.323,1.162l-3.848-3.848     l1.162-2.323c-0.652-1.109-1.144-2.291-1.466-3.525L31,49.721v-5.441l2.459-0.82c0.322-1.234,0.813-2.416,1.466-3.525     l-1.162-2.323l3.848-3.848l2.323,1.162c1.109-0.652,2.291-1.144,3.525-1.466L44.279,31h5.441l0.82,2.459     c1.234,0.322,2.416,0.813,3.525,1.466l2.323-1.162l3.848,3.848l-1.162,2.323c0.652,1.109,1.144,2.291,1.466,3.525L63,44.279     v5.441l-2.459,0.82c-0.322,1.234-0.813,2.416-1.466,3.525l1.162,2.323l-3.848,3.848l-2.323-1.162     c-1.109,0.652-2.291,1.144-3.525,1.466L49.721,63z"
   id="path26" />
		</g>
	</g>
	<g
   id="g34"
   style="fill:#ffffff">
		<path
   d="M47,57c-5.514,0-10-4.486-10-10s4.486-10,10-10s10,4.486,10,10S52.514,57,47,57z M47,39c-4.411,0-8,3.589-8,8s3.589,8,8,8    s8-3.589,8-8S51.411,39,47,39z"
   id="path32"
   style="fill:#ffffff" />
	</g>
	<g
   id="g38"
   style="fill:#ffffff">
		<path
   d="M47,51c-2.206,0-4-1.794-4-4s1.794-4,4-4s4,1.794,4,4S49.206,51,47,51z M47,45c-1.103,0-2,0.897-2,2s0.897,2,2,2    s2-0.897,2-2S48.103,45,47,45z"
   id="path36"
   style="fill:#ffffff" />
	</g>
	<g
   id="g42"
   style="fill:#ffffff">
		<polygon
   points="9.625,32.781 8.375,31.219 17.399,24 8.375,16.781 9.625,15.219 20.601,24   "
   id="polygon40"
   style="fill:#ffffff" />
	</g>
	<g
   id="g46"
   style="fill:#ffffff">
		<rect
   x="14"
   y="31"
   width="22"
   height="2"
   id="rect44"
   style="fill:#ffffff" />
	</g>
	<g
   id="g50"
   style="fill:#ffffff">
		<rect
   x="37"
   y="13"
   width="22"
   height="2"
   id="rect48"
   style="fill:#ffffff" />
	</g>
	<g
   id="g54"
   style="fill:#ffffff">
		<rect
   x="37"
   y="17"
   width="22"
   height="2"
   id="rect52"
   style="fill:#ffffff" />
	</g>
	<g
   id="g58"
   style="fill:#ffffff">
		<rect
   x="37"
   y="21"
   width="22"
   height="2"
   id="rect56"
   style="fill:#ffffff" />
	</g>
	<g
   id="g62"
   style="fill:#ffffff">
		<rect
   x="37"
   y="25"
   width="22"
   height="2"
   id="rect60"
   style="fill:#ffffff" />
	</g>
</g>
</svg>