<svg xmlns="http://www.w3.org/2000/svg" viewBox="0 0 24 24">
  <defs id="defs3051">
    <style type="text/css" id="current-color-scheme">
      .ColorScheme-Text {
        color:#4d4d4d;
      }
      </style>
  </defs>
 <path style="fill:currentColor;fill-opacity:1;stroke:none" 
     d="M 3 4 L 3 20 L 4 20 L 12 20 L 12 19 L 9 19 A 1 1 0 0 0 8 18 A 1 1 0 0 0 7 19 L 6 19 L 6 12 L 6 5 L 7 5 A 1 1 0 0 0 8 6 A 1 1 0 0 0 9 5 L 13 5 L 17 5 A 1 1 0 0 0 18 6 A 1 1 0 0 0 19 5 L 20 5 L 20 8 L 21 8 L 21 4 L 4 4 L 3 4 z M 13 5 A 7 7 0 0 0 6 12 A 7 7 0 0 0 12 18.921875 L 12 17.910156 A 6 6 0 0 1 7 12 A 6 6 0 0 1 13 6 A 6 6 0 0 1 17.462891 8 L 18.742188 8 A 7 7 0 0 0 13 5 z M 4 5 L 5 5 L 5 19 L 4 19 L 4 5 z M 17 9 L 17 10 L 17 15.5 C 16.5818 15.1852 16.066 15 15.5 15 C 14.115 15 13 16.115 13 17.5 C 13 18.885 14.115 20 15.5 20 C 16.885 20 18 18.885 18 17.5 L 18 11 L 20 11 C 20 9.892 19.108 9 18 9 L 17 9 z "
     class="ColorScheme-Text"
     />
</svg>
